<?xml version="1.0" encoding="utf-8"?>
<!-- Generator: Adobe Illustrator 16.0.0, SVG Export Plug-In . SVG Version: 6.00 Build 0)  -->
<!DOCTYPE svg PUBLIC "-//W3C//DTD SVG 1.1//EN" "http://www.w3.org/Graphics/SVG/1.1/DTD/svg11.dtd">
<svg version="1.1" id="Layer_2" xmlns="http://www.w3.org/2000/svg" xmlns:xlink="http://www.w3.org/1999/xlink" x="0px" y="0px"
	 width="100px" height="200px" viewBox="0 0 100 200" enable-background="new 0 0 100 200" xml:space="preserve">
<g id="Composite_Path" opacity="0.8">
	<g>
		<path fill="#FFFFFF" d="M40.5,68l30-17.5L40.5,33V68z M50.5,10.5c-22.091,0-40,17.908-40,40s17.909,40,40,40
			c22.092,0,40-17.908,40-40S72.592,10.5,50.5,10.5z M50.5,83C32.551,83,18,68.449,18,50.5S32.551,18,50.5,18S83,32.551,83,50.5
			S68.449,83,50.5,83z"/>
	</g>
</g>
<g id="Composite_Path_2_">
	<g>
		<path fill="#FFFFFF" d="M40.5,168l30-17.5l-30-17.5V168z M50.5,110.5c-22.091,0-40,17.908-40,40s17.909,40,40,40
			c22.092,0,40-17.908,40-40S72.592,110.5,50.5,110.5z M50.5,183C32.551,183,18,168.449,18,150.5S32.551,118,50.5,118
			S83,132.551,83,150.5S68.449,183,50.5,183z"/>
	</g>
</g>
</svg>
